<?xml version="1.0" encoding="UTF-8"?>
<!-- Generated by jsxcad -->
<!DOCTYPE svg PUBLIC "-//W3C//DTD SVG 1.1 Tiny//EN" "http://www.w3.org/Graphics/SVG/1.1/DTD/svg11-tiny.dtd">
<svg viewBox="-250 -250 500 500" width="500" height="500" xmlns="http://www.w3.org/2000/svg"><path d="M16.962677588125036,132.9155829646297L-117.89403060389375,-100.91873466684355L12.772821991869536,127.35632218053084z" style="fill:rgb(21,57,142)"/><path d="M97.07711986610275,86.72938741978312L-11.893561888292707,-145.71864354567137L98.56287169907876,93.6090207207046z" style="fill:rgb(246,167,149)"/><path d="M22.629421976351935,137.4157109814133L-113.72334237140295,-95.83617021563474L16.962677588125036,132.9155829646297z" style="fill:rgb(34,46,160)"/><path d="M98.56287169907876,93.6090207207046L-13.064582251920193,-138.30639252630485L98.3036210964224,100.97893060489442z" style="fill:rgb(246,149,167)"/><path d="M29.57311539708966,140.65621899722396L-107.64615940907288,-91.99259398487803L22.629421976351935,137.4157109814133z" style="fill:rgb(51,38,177)"/><path d="M98.3036210964224,100.97893060489442L-16.374749046600968,-130.44093931746667L96.27810979653877,108.55032014500253z" style="fill:rgb(242,130,183)"/><path d="M37.53212118367536,142.4834018596378L-99.86442582335096,-89.5730617967881L29.57311539708966,140.65621899722396z" style="fill:rgb(71,33,192)"/><path d="M96.27810979653877,108.55032014500253L-21.729843411680413,-122.44097635261605L92.54067746653341,116.01580617077896z" style="fill:rgb(233,112,197)"/><path d="M46.191966226707585,142.80085176054953L-90.66401357996088,-88.70831818068002L37.53212118367536,142.4834018596378z" style="fill:rgb(92,32,204)"/><path d="M92.54067746653341,116.01580617077896L-28.938278937369695,-114.64322799301529L87.2231775194502,123.0636371694602z" style="fill:rgb(220,94,208)"/><path d="M55.19849372283862,141.5774586547028L-80.40648028602835,-89.46361112011124L46.191966226707585,142.80085176054953z" style="fill:rgb(115,34,214)"/><path d="M87.2231775194502,123.0636371694602L-37.71557019960087,-107.38495734479963L80.53205509840848,129.39346156672661z" style="fill:rgb(203,77,216)"/><path d="M64.17473824266389,138.851928680503L-69.51450745196472,-91.8307067765548L55.19849372283862,141.5774586547028z" style="fill:rgb(139,40,220)"/><path d="M80.53205509840848,129.39346156672661L-47.696055043287174,-100.98493098836798L72.74035577925504,134.73273535380946z" style="fill:rgb(183,62,221)"/><path d="M72.74035577925504,134.73273535380946L-58.451404108563445,-95.7244729465474L64.17473824266389,138.851928680503z" style="fill:rgb(162,50,222)"/><path d="M16.962677588125036,132.9155829646297L-113.72334237140295,-95.83617021563474L-117.89403060389375,-100.91873466684355z" style="fill:rgb(21,57,142)"/><path d="M97.07711986610275,86.72938741978312L-12.860757481868001,-152.3914278866939L-11.893561888292707,-145.71864354567137z" style="fill:rgb(246,167,149)"/><path d="M22.629421976351935,137.4157109814133L-107.64615940907288,-91.99259398487803L-113.72334237140295,-95.83617021563474z" style="fill:rgb(34,46,160)"/><path d="M98.56287169907876,93.6090207207046L-11.893561888292707,-145.71864354567137L-13.064582251920193,-138.30639252630485z" style="fill:rgb(246,149,167)"/><path d="M29.57311539708966,140.65621899722396L-99.86442582335096,-89.5730617967881L-107.64615940907288,-91.99259398487803z" style="fill:rgb(51,38,177)"/><path d="M98.3036210964224,100.97893060489442L-13.064582251920193,-138.30639252630485L-16.374749046600968,-130.44093931746667z" style="fill:rgb(242,130,183)"/><path d="M37.53212118367536,142.4834018596378L-90.66401357996088,-88.70831818068002L-99.86442582335096,-89.5730617967881z" style="fill:rgb(71,33,192)"/><path d="M-74.38588839041249,-160.72049046719738L-84.27101742865725,-155.86553821237771L-93.518962168057,-150.03488804219432z" style="fill:rgb(83,212,212)"/><path d="M96.27810979653877,108.55032014500253L-16.374749046600968,-130.44093931746667L-21.729843411680413,-122.44097635261605z" style="fill:rgb(233,112,197)"/><path d="M-54.05233682019059,-166.87492821649255L-74.38588839041249,-160.72049046719738L-93.518962168057,-150.03488804219432zM-54.05233682019059,-166.87492821649255L-64.19786166755675,-164.43450633349363L-74.38588839041249,-160.72049046719738zM-93.518962168057,-150.03488804219432L-101.81311526055816,-143.42297323503L-108.86130772035997,-136.24991982015428z" style="fill:rgb(83,212,212)"/><path d="M46.191966226707585,142.80085176054953L-80.40648028602835,-89.46361112011124L-90.66401357996088,-88.70831818068002z" style="fill:rgb(92,32,204)"/><path d="M92.54067746653341,116.01580617077896L-21.729843411680413,-122.44097635261605L-28.938278937369695,-114.64322799301529z" style="fill:rgb(220,94,208)"/><path d="M55.19849372283862,141.5774586547028L-69.51450745196472,-91.8307067765548L-80.40648028602835,-89.46361112011124z" style="fill:rgb(115,34,214)"/><path d="M87.2231775194502,123.0636371694602L-28.938278937369695,-114.64322799301529L-37.71557019960087,-107.38495734479963z" style="fill:rgb(203,77,216)"/><path d="M-93.518962168057,-150.03488804219432L-108.86130772035997,-136.24991982015428L-118.21842875371232,-121.20635434723462zM-35.28378827587867,-167.58905759798546L-44.29893245033979,-167.94524593228056L-54.05233682019059,-166.87492821649255z" style="fill:rgb(83,212,212)"/><path d="M64.17473824266389,138.851928680503L-58.451404108563445,-95.7244729465474L-69.51450745196472,-91.8307067765548z" style="fill:rgb(139,40,220)"/><path d="M80.53205509840848,129.39346156672661L-37.71557019960087,-107.38495734479963L-47.696055043287174,-100.98493098836798z" style="fill:rgb(183,62,221)"/><path d="M-20.780042147366412,-162.59586130621742L-54.05233682019059,-166.87492821649255L-93.518962168057,-150.03488804219432z" style="fill:rgb(83,212,212)"/><path d="M72.74035577925504,134.73273535380946L-47.696055043287174,-100.98493098836798L-58.451404108563445,-95.7244729465474z" style="fill:rgb(162,50,222)"/><path d="M-108.86130772035997,-136.24991982015428L-114.40320269034731,-128.75788206983344L-118.21842875371232,-121.20635434723462zM-20.780042147366412,-162.59586130621742L-35.28378827587867,-167.58905759798546L-54.05233682019059,-166.87492821649255zM-20.780042147366412,-162.59586130621742L-27.340590163196712,-165.79403300030873L-35.28378827587867,-167.58905759798546zM-93.518962168057,-150.03488804219432L-118.21842875371232,-121.20635434723462L-113.72334237140295,-95.83617021563474zM-118.21842875371232,-121.20635434723462L-120.13567580667525,-113.86650111927182L-120.04232943975603,-107.01376927205702zM-20.780042147366412,-162.59586130621742L-93.518962168057,-150.03488804219432L-113.72334237140295,-95.83617021563474zM-118.21842875371232,-121.20635434723462L-120.04232943975603,-107.01376927205702L-113.72334237140295,-95.83617021563474zM-12.860757481868001,-152.3914278866939L-15.877746068959697,-158.08158056461187L-20.780042147366412,-162.59586130621742zM-120.04232943975603,-107.01376927205702L-117.89403060389375,-100.91873466684355L-113.72334237140295,-95.83617021563474zM-13.064582251920193,-138.30639252630485L-12.860757481868001,-152.3914278866939L-20.780042147366412,-162.59586130621742zM-13.064582251920193,-138.30639252630485L-11.893561888292707,-145.71864354567137L-12.860757481868001,-152.3914278866939zM-113.72334237140295,-95.83617021563474L-37.71557019960087,-107.38495734479963L-20.780042147366412,-162.59586130621742zM-37.71557019960087,-107.38495734479963L-13.064582251920193,-138.30639252630485L-20.780042147366412,-162.59586130621742zM-113.72334237140295,-95.83617021563474L-107.64615940907288,-91.99259398487803L-99.86442582335096,-89.5730617967881zM-113.72334237140295,-95.83617021563474L-99.86442582335096,-89.5730617967881L-80.40648028602835,-89.46361112011124zM-21.729843411680413,-122.44097635261605L-16.374749046600968,-130.44093931746667L-13.064582251920193,-138.30639252630485zM-113.72334237140295,-95.83617021563474L-80.40648028602835,-89.46361112011124L-37.71557019960087,-107.38495734479963zM-99.86442582335096,-89.5730617967881L-90.66401357996088,-88.70831818068002L-80.40648028602835,-89.46361112011124zM-37.71557019960087,-107.38495734479963L-21.729843411680413,-122.44097635261605L-13.064582251920193,-138.30639252630485zM-37.71557019960087,-107.38495734479963L-28.938278937369695,-114.64322799301529L-21.729843411680413,-122.44097635261605zM-80.40648028602835,-89.46361112011124L-69.51450745196472,-91.8307067765548L-58.451404108563445,-95.7244729465474zM-80.40648028602835,-89.46361112011124L-58.451404108563445,-95.7244729465474L-37.71557019960087,-107.38495734479963zM-58.451404108563445,-95.7244729465474L-47.696055043287174,-100.98493098836798L-37.71557019960087,-107.38495734479963z" style="fill:rgb(83,212,212)"/></svg>
