<?xml version="1.0" encoding="UTF-8"?>
<!-- Generated by jsxcad -->
<!DOCTYPE svg PUBLIC "-//W3C//DTD SVG 1.1 Tiny//EN" "http://www.w3.org/Graphics/SVG/1.1/DTD/svg11-tiny.dtd">
<svg viewBox="-250 -250 500 500" width="500" height="500" xmlns="http://www.w3.org/2000/svg"><path d="M-20.15700406162786,162.41280805201697L-169.3105440244182,-72.10848467093696L-28.069270995167546,150.88488754763623z" style="fill:rgb(21,57,142)"/><path d="M141.106186800231,69.37599680865497L44.496795253326326,-162.31249166368363L144.68865173610087,83.06061156655822z" style="fill:rgb(246,167,149)"/><path d="M-9.123146864932874,171.92601921896787L-161.7317798117171,-61.352475737280876L-20.15700406162786,162.41280805201697z" style="fill:rgb(34,46,160)"/><path d="M144.68865173610087,83.06061156655822L42.98580723129202,-147.42127569990294L144.7340579093431,97.92700833432677z" style="fill:rgb(246,149,167)"/><path d="M4.688578555582985,178.94861951746896L-150.11324303656446,-52.96500411965129L-9.123146864932874,171.92601921896787z" style="fill:rgb(51,38,177)"/><path d="M144.7340579093431,97.92700833432677L36.96427012119867,-131.3567215882156L141.10890914835758,113.3880368484017z" style="fill:rgb(242,130,183)"/><path d="M20.776967562174658,183.08921498972148L-134.75844947488537,-47.41968892806933L4.688578555582985,178.94861951746896z" style="fill:rgb(71,33,192)"/><path d="M141.10890914835758,113.3880368484017L26.512998073203704,-114.7952586685496L133.84896570727565,128.7867603548726z" style="fill:rgb(233,112,197)"/><path d="M38.49465814518449,184.0760007878731L-116.18712800226139,-45.08986046187473L20.776967562174658,183.08921498972148z" style="fill:rgb(92,32,204)"/><path d="M-61.83327849594751,-196.72511045824731L-81.4341655423349,-189.47006972147176L-100.43571034388265,-180.1206077780404zM-100.43571034388265,-180.1206077780404L-118.27641786834943,-168.9567471279354L-134.41555091218018,-156.29833270926886zM-61.83327849594751,-196.72511045824731L-100.43571034388265,-180.1206077780404L-134.41555091218018,-156.29833270926886z" style="fill:rgb(83,212,212)"/><path d="M133.84896570727565,128.7867603548726L11.960128721972566,-98.49162411736208L123.17717566273595,143.4299143678534z" style="fill:rgb(220,94,208)"/><path d="M57.075155854008,181.78720011416812L-95.13294814802782,-46.20683438439238L38.49465814518449,184.0760007878731z" style="fill:rgb(115,34,214)"/><path d="M123.17717566273595,143.4299143678534L-6.11366106056896,-83.23195835490424L109.50714415577053,156.63046673355137z" style="fill:rgb(203,77,216)"/><path d="M-23.179270811816295,-204.03830402794668L-42.21467414143603,-201.6462621167445L-61.83327849594751,-196.72511045824731z" style="fill:rgb(83,212,212)"/><path d="M75.67514298627265,176.27165092637088L-72.51732499299553,-50.82440445841931L57.075155854008,181.78720011416812z" style="fill:rgb(139,40,220)"/><path d="M109.50714415577053,156.63046673355137L-26.897081599271846,-69.77613893853723L93.4286741165518,167.755244523907z" style="fill:rgb(183,62,221)"/><path d="M93.4286741165518,167.755244523907L-49.39818263648538,-58.796811475919036L75.67514298627265,176.27165092637088z" style="fill:rgb(162,50,222)"/><path d="M-134.41555091218018,-156.29833270926886L-148.3355986958512,-142.50596945607572L-159.5478723550238,-127.98279001729443zM-61.83327849594751,-196.72511045824731L-134.41555091218018,-156.29833270926886L-172.1075891899929,-98.57285045853277zM10.663048212685254,-200.7196719741928L-23.179270811816295,-204.03830402794668L-61.83327849594751,-196.72511045824731z" style="fill:rgb(83,212,212)"/><path d="M-20.15700406162786,162.41280805201697L-161.7317798117171,-61.352475737280876L-169.3105440244182,-72.10848467093696z" style="fill:rgb(21,57,142)"/><path d="M141.106186800231,69.37599680865497L41.63697057998192,-175.46423263924555L44.496795253326326,-162.31249166368363z" style="fill:rgb(246,167,149)"/><path d="M-134.41555091218018,-156.29833270926886L-159.5478723550238,-127.98279001729443L-172.1075891899929,-98.57285045853277zM10.663048212685254,-200.7196719741928L-5.34441459317006,-203.7570324672986L-23.179270811816295,-204.03830402794668zM-159.5478723550238,-127.98279001729443L-167.603072938344,-113.17545650706042L-172.1075891899929,-98.57285045853277z" style="fill:rgb(83,212,212)"/><path d="M-9.123146864932874,171.92601921896787L-150.11324303656446,-52.96500411965129L-161.7317798117171,-61.352475737280876z" style="fill:rgb(34,46,160)"/><path d="M144.68865173610087,83.06061156655822L44.496795253326326,-162.31249166368363L42.98580723129202,-147.42127569990294z" style="fill:rgb(246,149,167)"/><path d="M44.496795253326326,-162.31249166368363L10.663048212685254,-200.7196719741928L-61.83327849594751,-196.72511045824731z" style="fill:rgb(83,212,212)"/><path d="M4.688578555582985,178.94861951746896L-134.75844947488537,-47.41968892806933L-150.11324303656446,-52.96500411965129z" style="fill:rgb(51,38,177)"/><path d="M144.7340579093431,97.92700833432677L42.98580723129202,-147.42127569990294L36.96427012119867,-131.3567215882156z" style="fill:rgb(242,130,183)"/><path d="M34.72633090177047,-186.4366007689686L24.219726175761426,-194.91848425676574L10.663048212685254,-200.7196719741928z" style="fill:rgb(83,212,212)"/><path d="M20.776967562174658,183.08921498972148L-116.18712800226139,-45.08986046187473L-134.75844947488537,-47.41968892806933z" style="fill:rgb(71,33,192)"/><path d="M-172.1075891899929,-98.57285045853277L-172.74617901333315,-84.7004401811079L-169.3105440244182,-72.10848467093696z" style="fill:rgb(83,212,212)"/><path d="M141.10890914835758,113.3880368484017L36.96427012119867,-131.3567215882156L26.512998073203704,-114.7952586685496z" style="fill:rgb(233,112,197)"/><path d="M-61.83327849594751,-196.72511045824731L-172.1075891899929,-98.57285045853277L-72.51732499299553,-50.82440445841931zM44.496795253326326,-162.31249166368363L34.72633090177047,-186.4366007689686L10.663048212685254,-200.7196719741928z" style="fill:rgb(83,212,212)"/><path d="M38.49465814518449,184.0760007878731L-95.13294814802782,-46.20683438439238L-116.18712800226139,-45.08986046187473z" style="fill:rgb(92,32,204)"/><path d="M133.84896570727565,128.7867603548726L26.512998073203704,-114.7952586685496L11.960128721972566,-98.49162411736208z" style="fill:rgb(220,94,208)"/><path d="M-172.1075891899929,-98.57285045853277L-169.3105440244182,-72.10848467093696L-150.11324303656446,-52.96500411965129z" style="fill:rgb(83,212,212)"/><path d="M57.075155854008,181.78720011416812L-72.51732499299553,-50.82440445841931L-95.13294814802782,-46.20683438439238z" style="fill:rgb(115,34,214)"/><path d="M123.17717566273595,143.4299143678534L11.960128721972566,-98.49162411736208L-6.11366106056896,-83.23195835490424z" style="fill:rgb(203,77,216)"/><path d="M44.496795253326326,-162.31249166368363L41.63697057998192,-175.46423263924555L34.72633090177047,-186.4366007689686z" style="fill:rgb(83,212,212)"/><path d="M75.67514298627265,176.27165092637088L-49.39818263648538,-58.796811475919036L-72.51732499299553,-50.82440445841931z" style="fill:rgb(139,40,220)"/><path d="M109.50714415577053,156.63046673355137L-6.11366106056896,-83.23195835490424L-26.897081599271846,-69.77613893853723z" style="fill:rgb(183,62,221)"/><path d="M93.4286741165518,167.755244523907L-26.897081599271846,-69.77613893853723L-49.39818263648538,-58.796811475919036z" style="fill:rgb(162,50,222)"/><path d="M-72.51732499299553,-50.82440445841931L44.496795253326326,-162.31249166368363L-61.83327849594751,-196.72511045824731zM-169.3105440244182,-72.10848467093696L-161.7317798117171,-61.352475737280876L-150.11324303656446,-52.96500411965129zM-172.1075891899929,-98.57285045853277L-150.11324303656446,-52.96500411965129L-72.51732499299553,-50.82440445841931zM36.96427012119867,-131.3567215882156L42.98580723129202,-147.42127569990294L44.496795253326326,-162.31249166368363zM-150.11324303656446,-52.96500411965129L-134.75844947488537,-47.41968892806933L-116.18712800226139,-45.08986046187473zM11.960128721972566,-98.49162411736208L36.96427012119867,-131.3567215882156L44.496795253326326,-162.31249166368363zM-150.11324303656446,-52.96500411965129L-116.18712800226139,-45.08986046187473L-72.51732499299553,-50.82440445841931zM-72.51732499299553,-50.82440445841931L11.960128721972566,-98.49162411736208L44.496795253326326,-162.31249166368363zM11.960128721972566,-98.49162411736208L26.512998073203704,-114.7952586685496L36.96427012119867,-131.3567215882156zM-116.18712800226139,-45.08986046187473L-95.13294814802782,-46.20683438439238L-72.51732499299553,-50.82440445841931zM-72.51732499299553,-50.82440445841931L-26.897081599271846,-69.77613893853723L11.960128721972566,-98.49162411736208zM-26.897081599271846,-69.77613893853723L-6.11366106056896,-83.23195835490424L11.960128721972566,-98.49162411736208zM-72.51732499299553,-50.82440445841931L-49.39818263648538,-58.796811475919036L-26.897081599271846,-69.77613893853723z" style="fill:rgb(83,212,212)"/></svg>
